<svg xmlns:xlink="http://www.w3.org/1999/xlink" xmlns="http://www.w3.org/2000/svg" xml:space="preserve" version="1.1" id="Layer_1" viewBox="12.959999999999999 25.919999999999998 98.64 69.36" style="max-height: 500px" width="98.64" height="69.36">

<style type="text/css">
	.st0{fill:#E9F6FF;}
	.st1{fill:#FFFFFF;}
	.st2{fill:#4675FF;}
	.st3{fill:#FFC54D;}
	.st4{fill:#E8B04B;}
	.st5{fill:#CECECE;}
</style>

<g>

<path d="M103,94H17c-2.4,0-4.3-1.9-4.3-4.3V30.3c0-2.4,1.9-4.3,4.3-4.3H103c2.4,0,4.3,1.9,4.3,4.3v59.3   C107.3,92.1,105.3,94,103,94z" class="st0"/>

<path d="M65.5,83.8H26.9c-1.8,0-3.3-1.5-3.3-3.3V39.6c0-1.8,1.5-3.3,3.3-3.3h38.6c1.8,0,3.3,1.5,3.3,3.3v40.8   C68.8,82.3,67.3,83.8,65.5,83.8z" class="st1"/>

<g>

<polygon points="98.5,50.1 88.2,55.3 77.9,50.1 65.2,75.6 73.1,74.8 77.2,81.6 88.2,59.7 99.2,81.6 103.3,74.8     111.2,75.6" class="st2"/>

<circle r="16.8" cy="50.6" cx="88.2" class="st3"/>

<circle r="13.2" cy="50.6" cx="88.2" class="st4"/>

</g>

<g>

<path d="M41.1,63.1h-9.9c-0.8,0-1.4,0.6-1.4,1.4s0.6,1.4,1.4,1.4h9.9c0.8,0,1.4-0.6,1.4-1.4S41.9,63.1,41.1,63.1z" class="st5"/>

<path d="M61.1,56.3H31.2c-0.8,0-1.4,0.6-1.4,1.4s0.6,1.4,1.4,1.4h29.9c0.8,0,1.4-0.6,1.4-1.4S61.9,56.3,61.1,56.3z" class="st5"/>

<path d="M61.1,50.5H31.2c-0.8,0-1.4,0.6-1.4,1.4c0,0.8,0.6,1.4,1.4,1.4h29.9c0.8,0,1.4-0.6,1.4-1.4    C62.5,51.1,61.9,50.5,61.1,50.5z" class="st5"/>

<path d="M31.2,46.6h29.9c0.8,0,1.4-0.6,1.4-1.4s-0.6-1.4-1.4-1.4H31.2c-0.8,0-1.4,0.6-1.4,1.4S30.5,46.6,31.2,46.6z" class="st5"/>

</g>

</g>

</svg>