<svg width="16" height="16" viewBox="0 0 16 16" fill="none" xmlns="http://www.w3.org/2000/svg">
<g id="Linear / Messages, Conversation / Pen" clip-path="url(#clip0_0_53)">
<path id="Vector" d="M9.57338 2.71911L10.1913 2.10119C11.2151 1.07739 12.875 1.07739 13.8988 2.10119C14.9226 3.12499 14.9226 4.7849 13.8988 5.80871L13.2809 6.42663M9.57338 2.71911C9.57338 2.71911 9.65062 4.03219 10.8092 5.19079C11.9678 6.34939 13.2809 6.42663 13.2809 6.42663M9.57338 2.71911L3.89255 8.39993C3.50778 8.78471 3.31539 8.9771 3.14993 9.18923C2.95476 9.43946 2.78743 9.71021 2.6509 9.99669C2.53516 10.2395 2.44912 10.4977 2.27704 11.0139L1.54787 13.2014M13.2809 6.42663L7.60007 12.1075C7.21529 12.4922 7.02291 12.6846 6.81078 12.8501C6.56055 13.0452 6.2898 13.2126 6.00332 13.3491C5.76047 13.4648 5.50235 13.5509 4.98612 13.723L2.79862 14.4521M2.79862 14.4521L2.2639 14.6304C2.00986 14.7151 1.72977 14.6489 1.54042 14.4596C1.35107 14.2702 1.28495 13.9901 1.36963 13.7361L1.54787 13.2014M2.79862 14.4521L1.54787 13.2014" stroke="#2C364E" stroke-width="1.5"/>
</g>
<defs>
<clipPath id="clip0_0_53">
<rect width="16" height="16" fill="white"/>
</clipPath>
</defs>
</svg>
