<?xml version="1.0" encoding="UTF-8"?>
<svg version="1.1" xmlns="http://www.w3.org/2000/svg" width="512" height="512">
<path d="M0 0 C20.70206358 16.59000986 33.66650031 37.73381889 37.02430725 64.4275322 C37.74513588 71.54053167 38.17222459 78.67365226 38.609375 85.80859375 C38.75944499 88.09212229 38.91069212 90.37557373 39.06304932 92.65895081 C39.37730313 97.41103888 39.6824606 102.16358333 39.97998047 106.91674805 C40.36006353 112.98857747 40.75545712 119.0592794 41.15668869 125.12974453 C41.54158433 130.9598819 41.91981152 136.7904453 42.296875 142.62109375 C42.36832481 143.72027067 42.43977463 144.81944759 42.51338959 145.95193291 C42.7153287 149.08028806 42.91263957 152.20889921 43.10839844 155.33764648 C43.19715492 156.70237091 43.19715492 156.70237091 43.28770447 158.09466553 C43.55460995 162.43728777 43.75229347 166.77694621 43.8291626 171.12733459 C43.85069082 172.30245401 43.85069082 172.30245401 43.87265396 173.50131321 C43.43626055 178.80129212 40.87245773 182.64968211 37.0625 186.1875 C33.32424445 188.64687865 31.33716467 188.87273594 26.86083984 188.86352539 C25.63972504 188.86344986 24.41861023 188.86337433 23.16049194 188.86329651 C21.82314005 188.85818952 20.48578857 188.85297352 19.1484375 188.84765625 C17.78366141 188.8457914 16.41888466 188.84436781 15.05410767 188.84336853 C11.46034907 188.83954863 7.86663083 188.82972283 4.27288818 188.81866455 C0.60641018 188.80843911 -3.06007435 188.80386848 -6.7265625 188.79882812 C-13.92189553 188.7881001 -21.11718697 188.77050756 -28.3125 188.75 C-28.3125 193.04 -28.3125 197.33 -28.3125 201.75 C-26.71148437 202.14058594 -25.11046875 202.53117188 -23.4609375 202.93359375 C-17.53327631 204.55635028 -12.33874423 206.91314616 -6.9375 209.8125 C-6.02629395 210.29710693 -5.11508789 210.78171387 -4.17626953 211.28100586 C3.44705489 215.43322431 10.115739 220.07848023 16.6875 225.75 C18.12996094 226.96816406 18.12996094 226.96816406 19.6015625 228.2109375 C40.29443263 246.28157064 52.98417864 270.44418429 59.6875 296.75 C60.0896875 298.31621094 60.0896875 298.31621094 60.5 299.9140625 C61.87422719 306.5370741 62.00773691 313.31862686 62.1875 320.0625 C62.25203369 321.47861572 62.25203369 321.47861572 62.31787109 322.92333984 C62.37264047 328.74852765 61.51839099 332.0621776 57.56835938 336.39916992 C52.45764683 340.06967518 47.0270807 340.02513951 41.0078125 339.9453125 C40.19504852 339.9424826 39.38228455 339.93965271 38.54489136 339.93673706 C35.96727325 339.92560619 33.39001181 339.90051515 30.8125 339.875 C29.05729671 339.86496101 27.30208794 339.85583677 25.546875 339.84765625 C21.26028074 339.82569015 16.9739507 339.79120978 12.6875 339.75 C13.03321045 340.69101562 13.3789209 341.63203125 13.73510742 342.6015625 C14.19209411 343.8593025 14.64887001 345.11711911 15.10546875 346.375 C15.5543042 347.60476563 16.00313965 348.83453125 16.46557617 350.1015625 C22.59760692 368.4106669 20.37819446 388.10241452 12.40625 405.47265625 C2.90339007 423.59288234 -12.62369251 436.44671905 -31.98046875 442.78515625 C-51.78821669 448.52081128 -72.03484127 446.33542293 -90.3125 436.75 C-109.00013957 425.40304442 -120.48066068 408.88837062 -126.05859375 387.94921875 C-129.62350447 371.35394469 -126.79830356 355.17616843 -120.3125 339.75 C-121.39668213 339.76571045 -122.48086426 339.7814209 -123.59790039 339.79760742 C-127.64388517 339.85215907 -131.68983782 339.88644133 -135.73608398 339.91479492 C-137.4828845 339.92982429 -139.22964765 339.95025354 -140.97631836 339.97631836 C-143.49602515 340.0129608 -146.01523039 340.02978492 -148.53515625 340.04296875 C-149.6949575 340.06619453 -149.6949575 340.06619453 -150.87818909 340.08988953 C-157.55561558 340.09193354 -162.22597473 338.74580678 -167.1875 334 C-173.24299952 324.73864779 -169.73212578 309.49328123 -167.83544922 299.14794922 C-163.20494007 277.48883923 -153.868053 257.49848001 -139.3125 240.75 C-138.20841797 239.42935547 -138.20841797 239.42935547 -137.08203125 238.08203125 C-122.43023709 221.13566574 -101.29889079 206.73261441 -79.3125 201.75 C-79.3125 197.46 -79.3125 193.17 -79.3125 188.75 C-82.03717529 188.7814209 -82.03717529 188.7814209 -84.81689453 188.81347656 C-90.83183768 188.87808888 -96.84668226 188.9239893 -102.86186409 188.95724869 C-106.5073912 188.97808571 -110.15254136 189.00633084 -113.79785156 189.05175781 C-117.31864987 189.09535643 -120.83908661 189.11916631 -124.36013412 189.12950897 C-126.35097947 189.14045006 -128.34168022 189.17165399 -130.33230591 189.20318604 C-141.63662897 189.2059836 -141.63662897 189.2059836 -146.3125 184.75 C-149.688275 180.27937905 -151.49741958 176.94892833 -151.29248047 171.34277344 C-151.25913605 170.41152649 -151.22579163 169.48027954 -151.19143677 168.52081299 C-151.12374588 166.95590118 -151.12374588 166.95590118 -151.0546875 165.359375 C-151.00835175 164.23569519 -150.96201599 163.11201538 -150.91427612 161.95428467 C-150.15810245 144.9414243 -148.98920254 127.94976064 -147.83837891 110.95996094 C-147.50057213 105.96526118 -147.17583955 100.96979848 -146.85399055 95.97404861 C-146.60009181 92.06818273 -146.33692104 88.16297999 -146.07128525 84.25789642 C-145.94754269 82.41641227 -145.82710718 80.5747023 -145.71030045 78.7327652 C-143.82778656 49.21192121 -135.30460503 24.4455243 -112.86914062 4.06835938 C-81.27231266 -22.69181488 -33.41278211 -23.97193092 0 0 Z " fill="#FDD1A3" transform="translate(450.3125,16.25)"/>
<path d="M0 0 C1.4546928 1.16637531 2.89226972 2.35439883 4.3125 3.5625 C8.79861987 7.24016717 13.2712666 8.46048863 18.796875 9.99609375 C30.09192246 13.53612692 39.58886967 21.94607416 45.0871582 32.35546875 C50.21052289 42.63782463 51.28745859 50.41551659 51.1953125 61.80859375 C51.19157667 63.14380175 51.18873239 64.47901251 51.18673706 65.81422424 C51.17914541 69.30768566 51.15953606 72.80097755 51.1373291 76.29437256 C51.11677371 79.86744901 51.10771473 83.44055318 51.09765625 87.01367188 C51.07628534 94.00918368 51.04220419 101.00458367 51 108 C51.78479736 108.297854 52.56959473 108.59570801 53.37817383 108.90258789 C57.83691204 110.7688723 60.44865503 113.96364142 63 118 C65.27273374 124.36550221 65.86564682 130.77199424 63 137 C60.04962825 142.41398184 56.57907156 146.12237403 50.7890625 148.390625 C44.94688581 149.66706697 38.93899847 149.28169163 33 149 C33.08701172 149.804375 33.08701172 149.804375 33.17578125 150.625 C33.98826899 164.73907272 27.73680017 178.20844829 18.6796875 188.68359375 C13.44639755 194.2039764 7.90899642 198.73151323 1 202 C0.34 202 -0.32 202 -1 202 C-1 208.27 -1 214.54 -1 221 C1.97 221.66 4.94 222.32 8 223 C10.66104587 224.11523229 13.14356349 225.23600264 15.6875 226.5625 C16.37175049 226.91401123 17.05600098 227.26552246 17.76098633 227.62768555 C49.78827565 244.39402144 72.90269334 270.79244279 84.05249023 305.35644531 C88.16564622 318.73392009 93.72900036 337.74790005 88.02734375 351.33203125 C86.01706525 354.59586745 83.35337367 356.32331317 80 358 C77.22977928 358.1045667 74.48432542 358.14779485 71.71356201 358.14717102 C70.41265385 358.15268605 70.41265385 358.15268605 69.08546472 358.1583125 C66.16211382 358.16937777 63.23879842 358.17319798 60.31542969 358.17700195 C58.22637315 358.18326445 56.13731773 358.18991106 54.04826355 358.19691467 C48.36014787 358.21434411 42.67204062 358.22488169 36.98390484 358.2331202 C33.43230479 358.23826614 29.88070738 358.24434205 26.32910919 358.25063133 C15.22323755 358.26968865 4.11737258 358.28391875 -6.98851228 358.2922433 C-19.81998512 358.30201932 -32.65128563 358.32834622 -45.48269773 358.36874419 C-55.39273008 358.39887681 -65.30271296 358.41370946 -75.21279025 358.41702431 C-81.13527738 358.41937802 -87.05758051 358.42838024 -92.98001862 358.45348549 C-98.55158011 358.47672124 -104.12283587 358.48101747 -109.69443321 358.47072411 C-111.73987277 358.47022754 -113.78532714 358.47658328 -115.8307209 358.49028015 C-118.62272479 358.50793109 -121.41362341 358.50092637 -124.20562744 358.48774719 C-125.42052349 358.50420106 -125.42052349 358.50420106 -126.65996289 358.52098733 C-131.8960367 358.46129342 -134.82263626 357.42553025 -139 354 C-142.7779718 349.59902227 -142.50165798 344.96923158 -142.4375 339.4375 C-142.42920166 338.51146973 -142.42090332 337.58543945 -142.41235352 336.63134766 C-141.60971498 302.9662312 -125.62171899 272.38679792 -102 249 C-90.27872827 237.89828121 -69.00500517 221 -52 221 C-52 214.73 -52 208.46 -52 202 C-53.98 201.34 -55.96 200.68 -58 200 C-71.54590698 191.31320009 -81.33752686 178.17706251 -85.25 162.5 C-86.16286713 157.95968716 -86.14665038 153.61948698 -86 149 C-87.45019531 149.08701172 -87.45019531 149.08701172 -88.9296875 149.17578125 C-97.28132435 149.46519441 -104.09344486 149.2532485 -111 144 C-115.92092822 139.40557886 -117.57502283 133.59726457 -118 127 C-117.76167056 120.45677366 -115.25881496 116.42272675 -110.94921875 111.62890625 C-108.75183623 109.79261665 -106.66318374 109.00583646 -104 108 C-104.00888245 107.38184921 -104.01776489 106.76369843 -104.0269165 106.1268158 C-104.11626921 99.62036506 -104.17609407 93.11409204 -104.21972656 86.60717773 C-104.2396879 84.18750922 -104.26686673 81.76788796 -104.30175781 79.34838867 C-104.53713922 62.59130927 -104.2690245 47.80716911 -96.25 32.6875 C-95.90565918 32.02290771 -95.56131836 31.35831543 -95.20654297 30.67358398 C-85.07679825 11.71543738 -68.42008337 0.28224633 -48.375 -6.08984375 C-31.9682937 -10.51433746 -14.59074299 -8.90727846 0 0 Z " fill="#FDD1A3" transform="translate(142,154)"/>
<path d="M0 0 C20.70206358 16.59000986 33.66650031 37.73381889 37.02430725 64.4275322 C37.74513588 71.54053167 38.17222459 78.67365226 38.609375 85.80859375 C38.75944499 88.09212229 38.91069212 90.37557373 39.06304932 92.65895081 C39.37730313 97.41103888 39.6824606 102.16358333 39.97998047 106.91674805 C40.36006353 112.98857747 40.75545712 119.0592794 41.15668869 125.12974453 C41.54158433 130.9598819 41.91981152 136.7904453 42.296875 142.62109375 C42.36832481 143.72027067 42.43977463 144.81944759 42.51338959 145.95193291 C42.7153287 149.08028806 42.91263957 152.20889921 43.10839844 155.33764648 C43.19715492 156.70237091 43.19715492 156.70237091 43.28770447 158.09466553 C43.55460995 162.43728777 43.75229347 166.77694621 43.8291626 171.12733459 C43.85069082 172.30245401 43.85069082 172.30245401 43.87265396 173.50131321 C43.43626055 178.80129212 40.87245773 182.64968211 37.0625 186.1875 C33.32424445 188.64687865 31.33716467 188.87273594 26.86083984 188.86352539 C25.63972504 188.86344986 24.41861023 188.86337433 23.16049194 188.86329651 C21.82314005 188.85818952 20.48578857 188.85297352 19.1484375 188.84765625 C17.78366141 188.8457914 16.41888466 188.84436781 15.05410767 188.84336853 C11.46034907 188.83954863 7.86663083 188.82972283 4.27288818 188.81866455 C0.60641018 188.80843911 -3.06007435 188.80386848 -6.7265625 188.79882812 C-13.92189341 188.7881001 -21.11719105 188.77102999 -28.3125 188.75 C-28.4519043 185.87353516 -28.4519043 185.87353516 -28.3125 182.75 C-26.08203125 180.7734375 -26.08203125 180.7734375 -23.125 179.125 C-10.12732849 171.71267328 -1.76094136 160.2306175 2.53808594 145.91821289 C4.99682162 135.76603945 5.14705921 125.88820893 5.07861328 115.48706055 C5.06231725 112.52933114 5.07865139 109.57292619 5.09765625 106.61523438 C5.09567732 104.72916366 5.09184093 102.84309376 5.0859375 100.95703125 C5.09504654 99.63527641 5.09504654 99.63527641 5.1043396 98.28681946 C5.09488312 97.4713414 5.08542664 96.65586334 5.07568359 95.81567383 C5.07210342 94.74317131 5.07210342 94.74317131 5.06845093 93.64900208 C4.57455956 91.18700326 3.6317391 90.29137592 1.6875 88.75 C-0.44256932 88.23801765 -0.44256932 88.23801765 -2.8125 88.1953125 C-3.69454102 88.14084961 -4.57658203 88.08638672 -5.48535156 88.03027344 C-6.88479004 87.95341309 -6.88479004 87.95341309 -8.3125 87.875 C-16.54036262 87.25324013 -23.18768984 86.17993378 -30.3125 81.75 C-31.41658203 81.08484375 -31.41658203 81.08484375 -32.54296875 80.40625 C-35.96057681 78.22865903 -39.16926774 75.86187155 -42.36328125 73.3671875 C-42.8931665 72.9556543 -43.42305176 72.54412109 -43.96899414 72.12011719 C-45.49424334 70.92833369 -47.00530802 69.71846342 -48.515625 68.5078125 C-51.61766073 66.55820904 -52.75019771 65.98036679 -56.3125 66.75 C-58.55848214 68.22210746 -60.51585632 69.6668829 -62.5625 71.375 C-63.71856219 72.29874269 -64.87611806 73.22061912 -66.03515625 74.140625 C-66.59605957 74.58986328 -67.15696289 75.03910156 -67.73486328 75.50195312 C-78.86787348 84.30912554 -89.51669843 87.8242951 -103.60546875 88.1796875 C-107.55946455 88.29405586 -107.55946455 88.29405586 -111.01431274 90.00549316 C-112.64914101 92.20237891 -112.69232601 93.41670951 -112.70068359 96.13867188 C-112.71014008 97.02389526 -112.71959656 97.90911865 -112.7293396 98.82116699 C-112.72023056 100.25547058 -112.72023056 100.25547058 -112.7109375 101.71875 C-112.71524277 103.20477722 -112.71524277 103.20477722 -112.71963501 104.7208252 C-112.72167833 106.8223528 -112.7161298 108.9238993 -112.70361328 111.02539062 C-112.68769947 114.21008128 -112.70338231 117.39347631 -112.72265625 120.578125 C-112.72067121 122.62500276 -112.71682216 124.67187973 -112.7109375 126.71875 C-112.71701019 127.65875854 -112.72308289 128.59876709 -112.7293396 129.56726074 C-112.57785966 144.15127791 -106.49567137 160.10605164 -96.3125 170.75 C-91.05717892 175.48153492 -85.57919559 179.48041969 -79.3125 182.75 C-79.3125 184.73 -79.3125 186.71 -79.3125 188.75 C-87.16219392 188.84285592 -95.01175815 188.91384356 -102.86186409 188.95724869 C-106.5073912 188.97808571 -110.15254136 189.00633084 -113.79785156 189.05175781 C-117.31864987 189.09535643 -120.83908661 189.11916631 -124.36013412 189.12950897 C-126.35097947 189.14045006 -128.34168022 189.17165399 -130.33230591 189.20318604 C-141.63662897 189.2059836 -141.63662897 189.2059836 -146.3125 184.75 C-149.688275 180.27937905 -151.49741958 176.94892833 -151.29248047 171.34277344 C-151.25913605 170.41152649 -151.22579163 169.48027954 -151.19143677 168.52081299 C-151.14630951 167.47753845 -151.10118225 166.43426392 -151.0546875 165.359375 C-151.00835175 164.23569519 -150.96201599 163.11201538 -150.91427612 161.95428467 C-150.15810245 144.9414243 -148.98920254 127.94976064 -147.83837891 110.95996094 C-147.50057213 105.96526118 -147.17583955 100.96979848 -146.85399055 95.97404861 C-146.60009181 92.06818273 -146.33692104 88.16297999 -146.07128525 84.25789642 C-145.94754269 82.41641227 -145.82710718 80.5747023 -145.71030045 78.7327652 C-143.82778656 49.21192121 -135.30460503 24.4455243 -112.86914062 4.06835938 C-81.27231266 -22.69181488 -33.41278211 -23.97193092 0 0 Z " fill="#7A6D79" transform="translate(450.3125,16.25)"/>
<path d="M0 0 C15.89297456 12.83570006 27.85427185 28.4574001 30.6171875 49.078125 C32.56353933 69.01830093 28.71859625 88.28570937 16.25 104.34375 C2.83405321 120.18202052 -13.96265165 130.95588518 -35 133 C-57.16471593 134.38994859 -76.1920175 128.13888571 -92.84375 113.5 C-106.93437354 100.18358655 -115.00526328 82.8624981 -116.21875 63.51171875 C-116.65876199 45.85623783 -112.58411068 31.02226129 -102 17 C-101.19755859 15.8553125 -101.19755859 15.8553125 -100.37890625 14.6875 C-90.5888155 1.16449695 -73.70002983 -9.6914168 -57.13037109 -12.72753906 C-37.05369041 -15.29521906 -16.67510399 -11.95726969 0 0 Z " fill="#01F1A6" transform="translate(439,329)"/>
<path d="M0 0 C0.47308594 1.02738281 0.94617188 2.05476562 1.43359375 3.11328125 C7.4741909 15.90331323 14.83550155 26.10863367 26 35 C26.62261719 35.52851563 27.24523437 36.05703125 27.88671875 36.6015625 C32.88821324 40.3553047 37.51599723 40.55880693 43.65625 40.56640625 C52.84052819 39.01065819 58.23795154 33.27721663 64.5 26.75 C65.73363281 25.48929687 65.73363281 25.48929687 66.9921875 24.203125 C69.00425325 22.14426703 71.00632172 20.07664185 73 18 C78.42193797 22.49164864 83.35331698 27.30152366 88.19335938 32.40820312 C92.24966557 36.57189649 95.94377173 39.49897897 101.859375 40.46875 C113.80912123 40.59793645 120.90289304 35.83920918 129.3984375 27.7265625 C137.23588135 19.51254477 142.24453381 10.17966982 147 0 C163.20927475 6.66134579 174.22716686 31.86672057 180.6875 46.8671875 C186.49954718 60.9541947 189.29107019 75.59702647 189.625 90.8125 C189.66028809 91.72531738 189.69557617 92.63813477 189.73193359 93.57861328 C189.72038156 99.23175612 188.67272005 102.41811684 184.87646484 106.6315918 C178.10203259 111.57183286 168.74028442 110.62555019 160.75146484 110.75512695 C159.00340328 110.79331198 157.25569228 110.85477266 155.50927734 110.93969727 C140.9846421 111.63897074 140.9846421 111.63897074 136.14331055 107.64086914 C134.11658064 104.84482528 132.55925069 102.07432845 131 99 C128.8209989 96.17543469 126.46527045 93.57684519 124 91 C123.071875 90.01580078 123.071875 90.01580078 122.125 89.01171875 C107.93648683 75.17254398 88.81122962 70.68033665 69.62329102 70.61499023 C52.73764893 70.87271186 36.82324181 77.64963185 24.70703125 89.49609375 C23 91 23 91 21 91 C20.73960937 91.56976563 20.47921875 92.13953125 20.2109375 92.7265625 C18.89944765 95.18877893 17.37148389 97.20142835 15.625 99.375 C13.5782338 101.92669531 11.90773537 104.18065475 10.4128418 107.10766602 C8 110 8 110 4.16870117 110.72875977 C2.62686071 110.74804579 1.08435406 110.73354039 -0.45703125 110.69140625 C-1.27821945 110.69003159 -2.09940765 110.68865692 -2.94548035 110.6872406 C-4.68131524 110.67818891 -6.41712684 110.6545753 -8.15258789 110.61743164 C-10.79337119 110.56289504 -13.43097962 110.55590111 -16.07226562 110.55664062 C-17.76304781 110.54188311 -19.45380878 110.52439291 -21.14453125 110.50390625 C-21.92705765 110.50056778 -22.70958405 110.49722931 -23.51582336 110.49378967 C-30.1658555 110.32348282 -34.93269681 108.97742044 -39.875 104.25 C-45.93049952 94.98864779 -42.41962578 79.74328123 -40.52294922 69.39794922 C-35.89908975 47.76994298 -26.57923349 27.70033744 -12 11 C-11.57477051 10.50918945 -11.14954102 10.01837891 -10.71142578 9.51269531 C-2.43449182 0 -2.43449182 0 0 0 Z " fill="#FC8087" transform="translate(323,246)"/>
<path d="M0 0 C1.4546928 1.16637531 2.89226972 2.35439883 4.3125 3.5625 C8.79861987 7.24016717 13.2712666 8.46048863 18.796875 9.99609375 C30.09192246 13.53612692 39.58886967 21.94607416 45.0871582 32.35546875 C50.21052289 42.63782463 51.28745859 50.41551659 51.1953125 61.80859375 C51.19157667 63.14380175 51.18873239 64.47901251 51.18673706 65.81422424 C51.17914541 69.30768566 51.15953606 72.80097755 51.1373291 76.29437256 C51.11677371 79.86744901 51.10771473 83.44055318 51.09765625 87.01367188 C51.07628534 94.00918368 51.04220419 101.00458367 51 108 C31.44365512 107.89884196 31.44365512 107.89884196 24.375 101.3125 C23.76011719 100.79494141 23.14523438 100.27738281 22.51171875 99.74414062 C21.28168259 98.70879573 20.06100493 97.66221649 18.85058594 96.60400391 C16.88036537 94.89630614 14.89139221 93.22960083 12.8515625 91.60546875 C12.23361816 91.1055542 11.61567383 90.60563965 10.97900391 90.09057617 C8.45396105 88.69909252 6.84651737 88.68441093 4 89 C1.62491092 90.30181497 -0.56440856 91.63436614 -2.8125 93.125 C-19.48619206 103.60171897 -37.48869869 107.41408438 -57.02734375 107.51171875 C-58.39597614 107.52862871 -59.76459361 107.546787 -61.13319397 107.56611633 C-64.6790194 107.61293911 -68.22478443 107.64318066 -71.77081299 107.66955566 C-75.41178336 107.6997099 -79.05254626 107.74611691 -82.69335938 107.79101562 C-89.79545283 107.87627422 -96.89761078 107.94395674 -104 108 C-104.10246541 100.86918592 -104.17190662 93.73856562 -104.21972656 86.60717773 C-104.2396879 84.18750922 -104.26686673 81.76788796 -104.30175781 79.34838867 C-104.53713922 62.59130927 -104.2690245 47.80716911 -96.25 32.6875 C-95.90565918 32.02290771 -95.56131836 31.35831543 -95.20654297 30.67358398 C-85.07679825 11.71543738 -68.42008337 0.28224633 -48.375 -6.08984375 C-31.9682937 -10.51433746 -14.59074299 -8.90727846 0 0 Z " fill="#7A6D78" transform="translate(142,154)"/>
<path d="M0 0 C5.69365659 0.5468907 10.3010242 2.09024971 15.5 4.4375 C16.67695435 4.96766724 16.67695435 4.96766724 17.87768555 5.50854492 C48.34683582 19.69134458 72.00342012 46.11599887 83.72265625 77.484375 C89.08956058 92.56781055 96.57873918 114.72340711 90.02734375 130.33203125 C88.01706525 133.59586745 85.35337367 135.32331317 82 137 C79.25370457 137.0932036 76.53296833 137.12577094 73.78662109 137.11352539 C72.51334206 137.11374443 72.51334206 137.11374443 71.21434021 137.1139679 C68.40068023 137.11326966 65.58708596 137.1054814 62.7734375 137.09765625 C60.82573482 137.09579175 58.87803168 137.094368 56.93032837 137.09336853 C51.79779776 137.08954583 46.66529533 137.07971765 41.53277588 137.06866455 C36.29789613 137.05844512 31.06301184 137.05386977 25.828125 137.04882812 C15.55207093 137.03809517 5.27603781 137.0210217 -5 137 C-5.32459831 135.58458016 -5.64639453 134.16851757 -5.96704102 132.75219727 C-6.146548 131.96369888 -6.32605499 131.1752005 -6.51100159 130.36280823 C-7.22611016 126.90745058 -7.5881935 123.44524178 -7.9375 119.9375 C-8.54425313 114.33627539 -9.34684673 108.84529313 -10.4375 103.3125 C-11.71203 96.75030452 -12.79484116 90.17892454 -13.75 83.5625 C-13.88978271 82.65089111 -14.02956543 81.73928223 -14.17358398 80.80004883 C-15.73573904 69.6218026 -13.62152981 62.27438916 -8.61914062 52.31054688 C-8.25626953 51.55193359 -7.89339844 50.79332031 -7.51953125 50.01171875 C-7.18026611 49.33584717 -6.84100098 48.65997559 -6.49145508 47.96362305 C-5.80694367 45.97712578 -5.80694367 45.97712578 -6.67407227 43.99023438 C-8.15978418 41.76016192 -9.77575801 40.01510078 -11.6953125 38.14453125 C-12.41074219 37.44005859 -13.12617187 36.73558594 -13.86328125 36.00976562 C-14.60964844 35.28466797 -15.35601562 34.55957031 -16.125 33.8125 C-17.60889524 32.36284849 -19.09078584 30.91114109 -20.5703125 29.45703125 C-21.22789551 28.81741455 -21.88547852 28.17779785 -22.56298828 27.51879883 C-24 26 -24 26 -24 25 C-23.34773438 24.82984375 -22.69546875 24.6596875 -22.0234375 24.484375 C-14.81268943 22.48493453 -8.93683684 20.01288393 -4.1015625 13.9921875 C-1.73128435 9.70551424 -0.94848341 4.76555081 0 0 Z " fill="#E9F5FE" transform="translate(140,375)"/>
<path d="M0 0 C0.13535156 0.7734375 0.27070312 1.546875 0.41015625 2.34375 C1.95589968 9.82255656 3.92537629 15.151983 10 20 C14.38050063 22.57279404 18.93791069 24.34682719 24 25 C18.44964797 31.78376359 12.23557973 37.85522968 6 44 C7.31060539 48.22306181 8.61272039 52.2138802 10.5703125 56.1875 C15.04808223 65.35130781 15.61488584 72.04932846 14 82 C13.86207031 82.87446777 13.72414063 83.74893555 13.58203125 84.64990234 C12.7766372 89.69308024 11.92378753 94.72662561 11.046875 99.7578125 C9.8569559 106.68314164 8.9159772 113.63448705 8.03955078 120.60571289 C7.87688721 121.86629517 7.87688721 121.86629517 7.7109375 123.15234375 C7.57631104 124.2350354 7.57631104 124.2350354 7.43896484 125.33959961 C7.03144016 127.80945306 6.5205693 130.22437967 5.9725647 132.66627502 C5.79090067 133.47758157 5.60923664 134.28888811 5.42206764 135.1247797 C5.28278532 135.7436024 5.143503 136.3624251 5 137 C-6.23969587 137.09273104 -17.47930054 137.16378093 -28.71930122 137.20724869 C-33.9386561 137.22811239 -39.15774901 137.25640807 -44.37695312 137.30175781 C-49.41496222 137.34525859 -54.45271952 137.36914626 -59.49090195 137.37950897 C-61.41183307 137.38689271 -63.3327506 137.40131152 -65.25357437 137.42292023 C-67.94685765 137.45201048 -70.63910411 137.45595366 -73.33251953 137.45410156 C-74.12446213 137.46848267 -74.91640472 137.48286377 -75.73234558 137.49768066 C-80.94413936 137.45896843 -83.84070533 136.40360177 -88 133 C-91.7779718 128.59902227 -91.50165798 123.96923158 -91.4375 118.4375 C-91.42920166 117.51146973 -91.42090332 116.58543945 -91.41235352 115.63134766 C-90.60971498 81.9662312 -74.62171899 51.38679792 -51 28 C-38.77144002 16.41780676 -17.64296027 0 0 0 Z " fill="#EAF5FE" transform="translate(91,375)"/>
<path d="M0 0 C4.25466488 2.08367588 8.02373229 4.75396335 11.875 7.5 C12.88691406 8.19609375 13.89882812 8.8921875 14.94140625 9.609375 C19.89345323 13.03332554 24.77186066 16.55379369 29.6328125 20.10546875 C35.49561814 24.38897519 41.49396475 28.45611817 47.51953125 32.50585938 C48.31746094 33.04662109 49.11539063 33.58738281 49.9375 34.14453125 C51.00291016 34.86153198 51.00291016 34.86153198 52.08984375 35.59301758 C56.6717004 38.96792043 56.6717004 38.96792043 57.65234375 42.05078125 C57.74644531 42.79714844 57.84054687 43.54351562 57.9375 44.3125 C58.10572266 45.42044922 58.10572266 45.42044922 58.27734375 46.55078125 C57.86071658 50.23000991 56.31356044 52.13878515 54 55 C51.76329929 56.71686449 49.63096815 58.21227107 47.25 59.6875 C45.89891904 60.55601654 44.54868624 61.42585362 43.19921875 62.296875 C42.50489746 62.74095703 41.81057617 63.18503906 41.09521484 63.64257812 C37.7040574 65.83959926 34.38448473 68.13775897 31.0625 70.4375 C29.73049135 71.35550155 28.39845995 72.27347007 27.06640625 73.19140625 C24.99908444 74.61854457 22.9324858 76.04671445 20.86669922 77.47607422 C19.43691145 78.46527842 18.00665712 79.45380859 16.57592773 80.44165039 C15.24232773 81.36245077 13.90972135 82.28469283 12.57836914 83.20874023 C9.33564332 85.44676172 6.06755557 87.6452705 2.76171875 89.7890625 C2.12967529 90.2010791 1.49763184 90.6130957 0.84643555 91.03759766 C-2.21727137 92.6344683 -4.64711814 92.50609537 -8 92 C-11.8210618 90.30175031 -13.47722286 88.85407845 -15 85 C-15.22705078 82.52636719 -15.22705078 82.52636719 -15.1953125 79.796875 C-15.18886719 78.8171875 -15.18242187 77.8375 -15.17578125 76.828125 C-15.15064453 75.30445312 -15.15064453 75.30445312 -15.125 73.75 C-15.11597656 72.71875 -15.10695313 71.6875 -15.09765625 70.625 C-15.07412011 68.08309713 -15.04124023 65.5416672 -15 63 C-22.85002121 63.06132747 -30.69971412 63.1385168 -38.54936409 63.23571491 C-42.19467057 63.28035957 -45.83986681 63.31962825 -49.48535156 63.34643555 C-53.00634237 63.37252811 -56.52690763 63.41297142 -60.04763412 63.46318626 C-62.03826001 63.48788358 -64.02905075 63.49788447 -66.01980591 63.50764465 C-67.24061859 63.52743881 -68.46143127 63.54723297 -69.71923828 63.56762695 C-71.32474045 63.58428154 -71.32474045 63.58428154 -72.962677 63.60127258 C-77.81211849 64.23788755 -81.04984876 65.9471297 -84.3125 69.5625 C-87.08160775 73.5623223 -87.14239301 75.88701798 -87.2109375 80.765625 C-87.23902082 82.14454282 -87.26768537 83.5234489 -87.296875 84.90234375 C-87.33801395 87.07242316 -87.37490596 89.24228694 -87.40136719 91.41259766 C-87.42914602 93.50989965 -87.47502792 95.60621079 -87.5234375 97.703125 C-87.54325684 98.95770508 -87.56307617 100.21228516 -87.58349609 101.50488281 C-88.03741686 105.31398582 -88.9929718 107.74745653 -91 111 C-97.88824275 115.69652915 -107.48818331 114.98679299 -115.421875 113.56640625 C-118.61512119 112.46787498 -119.93564219 111.10771945 -121.65234375 108.234375 C-123.92880891 102.5284777 -123.39208567 96.3514609 -123.3125 90.3125 C-123.31572266 89.10916016 -123.31894531 87.90582031 -123.32226562 86.66601562 C-123.21901551 69.29183698 -119.84594149 54.96593209 -107.44140625 42.18359375 C-95.21963629 31.2524427 -82.16383669 28.36929735 -66.171875 28.609375 C-64.68687714 28.61685588 -63.20186926 28.62254005 -61.71685791 28.62652588 C-57.850074 28.6416374 -53.98391237 28.68078922 -50.11737061 28.7253418 C-46.15515556 28.76661168 -42.19283779 28.78460386 -38.23046875 28.8046875 C-30.48669862 28.84730173 -22.74343723 28.91537122 -15 29 C-15.0314209 27.9941687 -15.0314209 27.9941687 -15.06347656 26.96801758 C-15.14686027 23.9163322 -15.19873016 20.86488683 -15.25 17.8125 C-15.28351563 16.75740234 -15.31703125 15.70230469 -15.3515625 14.61523438 C-15.45071882 6.75709587 -15.45071882 6.75709587 -13.109375 2.82421875 C-9.1073465 -0.63679479 -5.10636946 -0.95453128 0 0 Z " fill="#00F2A6" transform="translate(221,0)"/>
<path d="M0 0 C6.75136183 0.23766202 10.08551953 2.95113081 15.0625 7.3125 C24.65507061 15.93963961 24.65507061 15.93963961 36.9375 18.5625 C43.50422161 18.60623649 48.81366035 19.53914752 54.14453125 23.65625 C58.95909596 28.97820443 60.75810814 33.81686341 61 41 C60.62351708 47.42302686 57.54721764 52.55120699 53 57 C45.90486264 62.28424456 37.40474222 61.3986439 29 61 C29.05800781 61.53625 29.11601562 62.0725 29.17578125 62.625 C29.98826899 76.73907272 23.73680017 90.20844829 14.6796875 100.68359375 C9.44639755 106.2039764 3.90899642 110.73151323 -3 114 C-3.66 114 -4.32 114 -5 114 C-4.94779297 115.84851563 -4.94779297 115.84851563 -4.89453125 117.734375 C-4.42411575 140.9776049 -4.42411575 140.9776049 -11.375 149.9375 C-16.36769196 155.07978573 -22.28071347 156.83023039 -29 159 C-20.09 167.91 -20.09 167.91 -11 177 C-13.28130846 183.84392537 -15.71824537 189.78960853 -18.890625 196.1796875 C-20.4099935 201.41187903 -19.74884581 205.66166854 -19 211 C-18.8561084 212.15999512 -18.7122168 213.31999023 -18.56396484 214.51513672 C-18.08559099 218.34663575 -17.57720162 222.17322217 -17.0625 226 C-16.89298828 227.2890625 -16.72347656 228.578125 -16.54882812 229.90625 C-15.55867763 237.31543698 -14.3852638 244.65558871 -13 252 C-12.61281666 254.28963975 -12.23540513 256.58099275 -11.875 258.875 C-11.70742187 259.92429687 -11.53984375 260.97359375 -11.3671875 262.0546875 C-11 265 -11 265 -11 270 C-23.87 270 -36.74 270 -50 270 C-49.12562208 262.13059873 -48.16084246 254.28631857 -47.125 246.4375 C-47.0372934 245.77048065 -46.94958679 245.1034613 -46.85922241 244.41622925 C-45.86955712 236.92443039 -44.8163275 229.47052669 -43.3125 222.0625 C-42.87061604 219.70915228 -42.43283078 217.35502961 -42 215 C-41.76152344 213.82953125 -41.52304688 212.6590625 -41.27734375 211.453125 C-39.84274187 201.54905871 -42.56047536 194.89574842 -46.92285156 186.0559082 C-47.34147461 185.19827881 -47.76009766 184.34064941 -48.19140625 183.45703125 C-48.58529541 182.69366455 -48.97918457 181.93029785 -49.38500977 181.14379883 C-50 179 -50 179 -49.34399414 176.96459961 C-47.8369939 174.76172387 -46.20765711 172.98213875 -44.3046875 171.109375 C-43.58925781 170.40039062 -42.87382813 169.69140625 -42.13671875 168.9609375 C-41.39035156 168.23132813 -40.64398438 167.50171875 -39.875 166.75 C-39.12089844 166.00492188 -38.36679688 165.25984375 -37.58984375 164.4921875 C-35.73099228 162.6568658 -33.86762995 160.8263809 -32 159 C-33.14359985 158.64784424 -33.14359985 158.64784424 -34.31030273 158.28857422 C-41.9127296 155.88301372 -48.13501557 152.78052635 -52.34375 145.7578125 C-55.7714279 138.48623868 -56.14456848 131.5414521 -56.0625 123.625 C-56.05798828 122.79355469 -56.05347656 121.96210938 -56.04882812 121.10546875 C-56.03713164 119.07028103 -56.01919935 117.03513077 -56 115 C-55.1032959 115.2465332 -55.1032959 115.2465332 -54.18847656 115.49804688 C-43.90445637 118.22848494 -36.73103544 116.15204768 -27.4375 111.0859375 C-13.6325485 103.04577493 -4.55628314 89.84882697 -0.39135742 74.63378906 C1.41010712 67.17977836 1.478669 59.79005458 1.51171875 52.171875 C1.52860746 50.68685464 1.54676316 49.2018482 1.56611633 47.71685791 C1.61316847 43.85040647 1.64326495 39.98401149 1.66955566 36.11737061 C1.6995902 32.15495655 1.7460404 28.1927364 1.79101562 24.23046875 C1.87653754 16.48707636 1.94410687 8.74366905 2 1 C1.34 0.67 0.68 0.34 0 0 Z " fill="#FEBD86" transform="translate(146,242)"/>
<path d="M0 0 C2.70182292 1.00911458 5.40364583 2.01822917 8.10546875 3.02734375 C21.01895104 7.36669205 35.5195395 5.91714346 48 1 C48.99 0.67 49.98 0.34 51 0 C51 6.27 51 12.54 51 19 C52.60101563 19.39058594 54.20203125 19.78117187 55.8515625 20.18359375 C61.77953407 21.80643525 66.97300883 24.16411811 72.375 27.0625 C73.28040527 27.54203125 74.18581055 28.0215625 75.11865234 28.515625 C82.70493376 32.63516638 89.49401697 37.32050992 96 43 C96.62648438 43.4640625 97.25296875 43.928125 97.8984375 44.40625 C99 46 99 46 98.875 48.83203125 C94.79458392 63.60532339 81.34677577 78.47440779 68.1875 86 C62.64362994 88.53483328 56.97757974 89.29947386 51 88 C44.16919063 84.83870142 39.16226248 79.52422369 34 74.1875 C33.22527344 73.39923828 32.45054687 72.61097656 31.65234375 71.79882812 C29.76114073 69.87260283 27.87735951 67.9397037 26 66 C20.58676003 70.47687931 15.68369847 75.27528789 10.89453125 80.40820312 C5.66710759 85.80649898 0.32578243 88.41573199 -7.3125 88.625 C-14.66593598 88.43148853 -18.60244626 85.74809199 -24 81 C-25.26650391 79.96939453 -25.26650391 79.96939453 -26.55859375 78.91796875 C-35.94281786 70.99065615 -43.85420871 60.67413197 -48 49 C-47.82202979 46.4241154 -47.3040543 45.36013347 -45.64453125 43.39453125 C-36.68501695 35.65763724 -26.78443832 29.63825543 -16.125 24.5625 C-15.43607666 24.23258057 -14.74715332 23.90266113 -14.03735352 23.56274414 C-9.27970489 21.37364201 -5.31360099 20.32840025 0 19 C0 12.73 0 6.46 0 0 Z " fill="#F5A96C" transform="translate(371,199)"/>
<path d="M0 0 C28.07063325 0.04506322 49.71866854 7.21715208 70.27490234 27.06835938 C90.79025484 47.73945756 95.29854616 74.51778894 97.00927734 102.43945312 C97.15934733 104.72298166 97.31059447 107.00643311 97.46295166 109.28981018 C97.77720547 114.04189825 98.08236294 118.79444271 98.37988281 123.54760742 C98.75996587 129.61943684 99.15535947 135.69013877 99.55659103 141.7606039 C99.94148667 147.59074128 100.31971386 153.42130468 100.69677734 159.25195312 C100.76822716 160.35113005 100.83967697 161.45030697 100.91329193 162.58279228 C101.11523104 165.71114743 101.31254191 168.83975858 101.50830078 171.96850586 C101.59705727 173.33323029 101.59705727 173.33323029 101.68760681 174.7255249 C101.95451229 179.06814715 102.15219581 183.40780558 102.22906494 187.75819397 C102.24341709 188.54160691 102.25776924 189.32501986 102.2725563 190.13217258 C101.8361629 195.4321515 99.27236007 199.28054148 95.46240234 202.81835938 C91.72414679 205.27773803 89.73706701 205.50359531 85.26074219 205.49438477 C84.03962738 205.49430923 82.81851257 205.4942337 81.56039429 205.49415588 C80.2230424 205.48904889 78.88569092 205.48383289 77.54833984 205.47851562 C76.18356376 205.47665077 74.818787 205.47522719 73.45401001 205.47422791 C69.86025141 205.470408 66.26653317 205.46058221 62.67279053 205.44952393 C59.00631252 205.43929849 55.339828 205.43472785 51.67333984 205.4296875 C44.47800894 205.41895947 37.28271129 205.40188937 30.08740234 205.38085938 C29.94799805 202.50439453 29.94799805 202.50439453 30.08740234 199.38085938 C32.31787109 197.40429687 32.31787109 197.40429687 35.27490234 195.75585938 C48.29283083 188.33198048 56.52789208 176.89806093 60.94018555 162.62158203 C63.84233198 150.88069942 63.50594627 139.15209255 63.39990234 127.13085938 C63.39430298 126.01891205 63.38870361 124.90696472 63.38293457 123.76132202 C63.19612519 87.01585037 61.79817421 54.37932436 35.46240234 26.25585938 C22.48173284 13.75744384 6.6688148 6.05170373 -10.91259766 2.38085938 C-7.76408531 -0.76765297 -4.30166007 0.05668998 0 0 Z " fill="#685E68" transform="translate(391.91259765625,-0.380859375)"/>
<path d="M0 0 C5.69365659 0.5468907 10.3010242 2.09024971 15.5 4.4375 C16.67695435 4.96766724 16.67695435 4.96766724 17.87768555 5.50854492 C48.34683582 19.69134458 72.00342012 46.11599887 83.72265625 77.484375 C89.08956058 92.56781055 96.57873918 114.72340711 90.02734375 130.33203125 C88.01706525 133.59586745 85.35337367 135.32331317 82 137 C79.96767366 137.08527628 77.93252994 137.10716135 75.8984375 137.09765625 C74.68671875 137.09443359 73.475 137.09121094 72.2265625 137.08789062 C70.95554687 137.07951172 69.68453125 137.07113281 68.375 137.0625 C67.09625 137.05798828 65.8175 137.05347656 64.5 137.04882812 C61.33328708 137.03701203 58.16666644 137.02053815 55 137 C55.99 136.34 56.98 135.68 58 135 C61.3114975 132.57695305 63.55149144 130.8626895 65 127 C67.65974157 98.19188998 56.64928262 67.0785197 38.9375 44.625 C37.63773805 43.07257891 36.32514273 41.53081322 35 40 C34.27167969 39.13890625 33.54335937 38.2778125 32.79296875 37.390625 C29.98954282 34.10779931 29.98954282 34.10779931 27 31 C26.34 31 25.68 31 25 31 C23.65632361 32.55467281 23.65632361 32.55467281 22.3125 34.5625 C18.44740537 39.88291143 14.24207692 45.45515325 8 48 C1.89012824 48.59127791 -1.19236205 47.92524843 -6 44 C-9.21893054 41.02845628 -12.30106377 37.93301102 -15.375 34.8125 C-16.20644531 33.98041016 -17.03789063 33.14832031 -17.89453125 32.29101562 C-24 26.14043257 -24 26.14043257 -24 25 C-23.34773438 24.82984375 -22.69546875 24.6596875 -22.0234375 24.484375 C-14.81268943 22.48493453 -8.93683684 20.01288393 -4.1015625 13.9921875 C-1.73128435 9.70551424 -0.94848341 4.76555081 0 0 Z " fill="#D8ECFE" transform="translate(140,375)"/>
<path d="M0 0 C5.94127317 4.70350793 10.48356108 9.92715612 15 16 C15.47566406 16.61359375 15.95132813 17.2271875 16.44140625 17.859375 C25.81952215 31.14748907 27.45757498 50.15411517 25.5390625 65.74609375 C21.94769128 86.047904 11.53251707 102.99548171 -5.1015625 115.29296875 C-22.5421143 126.60174504 -42.12255903 130.46207168 -62.5625 126.875 C-81.39239773 122.6446677 -98.45191356 111.72695863 -109.25 95.5 C-110.11625 93.7675 -110.11625 93.7675 -111 92 C-110.67 91.01 -110.34 90.02 -110 89 C-109.50113281 89.36351562 -109.00226563 89.72703125 -108.48828125 90.1015625 C-91.70461222 101.85314405 -73.105889 106.11234949 -52.7734375 103.6015625 C-34.40331292 100.09163795 -18.32292388 89.77080521 -7 75 C5.17267803 56.57882473 9.08868164 35.87080849 4.6875 14.1875 C3.66229593 9.7341003 2.06933724 6.06332047 0 2 C0 1.34 0 0.68 0 0 Z " fill="#0DD290" transform="translate(444,334)"/>
<path d="M0 0 C4.8911484 4.06838173 9.47350753 8.34438078 13.9375 12.875 C14.82018555 13.76445312 14.82018555 13.76445312 15.72070312 14.671875 C17.14947674 16.11226466 18.57508132 17.5557967 20 19 C17.91442849 25.72017487 15.24020206 31.87330727 12.109375 38.1796875 C10.5900065 43.41187903 11.25115419 47.66166854 12 53 C12.1438916 54.15999512 12.2877832 55.31999023 12.43603516 56.51513672 C12.91440901 60.34663575 13.42279838 64.17322217 13.9375 68 C14.10701172 69.2890625 14.27652344 70.578125 14.45117188 71.90625 C15.44132237 79.31543698 16.6147362 86.65558871 18 94 C18.38718334 96.28963975 18.76459487 98.58099275 19.125 100.875 C19.37636719 102.44894531 19.37636719 102.44894531 19.6328125 104.0546875 C20 107 20 107 20 112 C7.13 112 -5.74 112 -19 112 C-18.12562208 104.13059873 -17.16084246 96.28631857 -16.125 88.4375 C-16.0372934 87.77048065 -15.94958679 87.1034613 -15.85922241 86.41622925 C-14.86955712 78.92443039 -13.8163275 71.47052669 -12.3125 64.0625 C-11.87061604 61.70915228 -11.43283078 59.35502961 -11 57 C-10.76152344 55.82953125 -10.52304688 54.6590625 -10.27734375 53.453125 C-8.84274187 43.54905871 -11.56047536 36.89574842 -15.92285156 28.0559082 C-16.34147461 27.19827881 -16.76009766 26.34064941 -17.19140625 25.45703125 C-17.58529541 24.69366455 -17.97918457 23.93029785 -18.38500977 23.14379883 C-19 21 -19 21 -18.35766602 18.97827148 C-16.78674408 16.68926224 -15.06459602 14.8397513 -13.0859375 12.890625 C-12.32539062 12.13652344 -11.56484375 11.38242187 -10.78125 10.60546875 C-9.9871875 9.82816406 -9.193125 9.05085938 -8.375 8.25 C-7.57320312 7.45722656 -6.77140625 6.66445313 -5.9453125 5.84765625 C-3.96797154 3.89385507 -1.98611091 1.94487897 0 0 Z " fill="#FC8188" transform="translate(115,400)"/>
<path d="M0 0 C4.47870656 2.15937638 7.18198188 4.92952939 10 9 C11.78251619 14.34754858 11.44570188 18.93654356 9.12667847 24.07479858 C6.86107838 27.94612179 3.59370073 30.93116346 0.41015625 34.05078125 C-0.33077774 34.7907988 -1.07171173 35.53081635 -1.83509827 36.29325867 C-3.39632133 37.84846245 -4.96237963 39.39882565 -6.53295898 40.94458008 C-8.93662502 43.31163835 -11.32380463 45.69440745 -13.70898438 48.08007812 C-15.23082893 49.59209445 -16.7535846 51.10319441 -18.27734375 52.61328125 C-18.99099594 53.32470779 -19.70464813 54.03613434 -20.43992615 54.76911926 C-21.11064651 55.42707993 -21.78136688 56.08504059 -22.47241211 56.76293945 C-23.0584874 57.34139114 -23.64456268 57.91984283 -24.24839783 58.51582336 C-28.80132193 62.37363062 -33.1778998 62.63059411 -38.99609375 62.4765625 C-44.22987308 61.646236 -46.50407384 58.78095175 -50 55 C-51.24585473 53.7730897 -52.49774531 52.55229378 -53.75390625 51.3359375 C-59.2711469 45.95802443 -59.2711469 45.95802443 -61.8046875 43.42578125 C-62.37171387 42.86286377 -62.93874023 42.29994629 -63.52294922 41.7199707 C-67.29670032 37.32557789 -67.42857616 33.30737965 -67.31640625 27.69140625 C-66.71977021 22.61631698 -64.09820164 19.99106002 -60.4375 16.6875 C-56.21014402 13.76086894 -52.01508241 13.33847398 -47 14 C-42.48752195 15.64831929 -38.80827355 18.11516862 -35 21 C-34.22136597 20.20565552 -34.22136597 20.20565552 -33.42700195 19.39526367 C-31.06082088 16.9873808 -28.68677396 14.58740221 -26.3125 12.1875 C-25.49587891 11.35412109 -24.67925781 10.52074219 -23.83789062 9.66210938 C-23.04189453 8.85966797 -22.24589844 8.05722656 -21.42578125 7.23046875 C-20.69786377 6.49207764 -19.96994629 5.75368652 -19.2199707 4.99291992 C-13.16502858 -0.44274406 -7.91247008 -0.96624465 0 0 Z " fill="#E8F5FE" transform="translate(422,359)"/>
<path d="M0 0 C16.20927475 6.66134579 27.22716686 31.86672057 33.6875 46.8671875 C39.49954718 60.9541947 42.29107019 75.59702647 42.625 90.8125 C42.66028809 91.72531738 42.69557617 92.63813477 42.73193359 93.57861328 C42.72038156 99.23175612 41.67272005 102.41811684 37.87646484 106.6315918 C33.38516632 109.90686219 28.69752973 110.24493147 23.2890625 110.1953125 C22.04511719 110.18886719 20.80117188 110.18242187 19.51953125 110.17578125 C18.23433594 110.15902344 16.94914062 110.14226562 15.625 110.125 C14.31660156 110.11597656 13.00820313 110.10695313 11.66015625 110.09765625 C8.4399163 110.07415085 5.22005293 110.04129087 2 110 C4 108 4 108 6.375 107.1875 C10.18314152 105.46476931 12.15472918 102.69054164 14 99 C16.04312484 73.30377604 7.97957296 44.58873455 -7.33203125 23.83984375 C-9 21 -9 21 -9.00390625 18.64453125 C-7.56555032 14.85555472 -5.79874607 11.28462324 -3.9375 7.6875 C-3.37192383 6.57665039 -3.37192383 6.57665039 -2.79492188 5.44335938 C-1.86871843 3.62612478 -0.93509371 1.81267596 0 0 Z " fill="#FD646F" transform="translate(470,246)"/>
<path d="M0 0 C3.75238357 0.22009689 7.5008125 0.48124104 11.25 0.75 C12.31347656 0.811875 13.37695312 0.87375 14.47265625 0.9375 C15.49746094 1.01484375 16.52226562 1.0921875 17.578125 1.171875 C18.99206543 1.2661377 18.99206543 1.2661377 20.43457031 1.36230469 C23.70252082 2.17462737 24.96594705 3.34466774 27 6 C27.50120544 8.01925659 27.50120544 8.01925659 27.50170898 10.17919922 C27.51108994 10.99460175 27.52047089 11.81000427 27.53013611 12.65011597 C27.51890213 13.52612457 27.50766815 14.40213318 27.49609375 15.3046875 C27.49754898 16.22025421 27.49900421 17.13582092 27.50050354 18.07913208 C27.49884375 20.02088595 27.48727346 21.96265286 27.46655273 23.90429688 C27.4379399 26.83001962 27.44587419 29.75388903 27.45898438 32.6796875 C27.43763166 53.20632981 24.05637026 71.75774863 9 87 C-2.91001795 97.40029736 -16.89550347 103.42431763 -32.6875 103.1875 C-33.51572266 103.18685547 -34.34394531 103.18621094 -35.19726562 103.18554688 C-39.25499009 103.15630787 -43.04250292 103.00750944 -47 102 C-43.84661713 100.35215147 -40.62334158 99.04836925 -37.3125 97.75 C-23.32344213 91.90990788 -12.41562037 82.17568004 -5.93212891 68.30200195 C-0.13605521 53.98791634 -0.34105928 39.81281091 -0.25 24.5625 C-0.22178901 22.17380698 -0.19185459 19.78513366 -0.16015625 17.39648438 C-0.08690682 11.59773359 -0.0349085 5.79910183 0 0 Z " fill="#FEBC85" transform="translate(429,102)"/>
<path d="M0 0 C12.72810336 1.60136658 22.47823461 7.60777958 30.77490234 17.38476562 C39.23909765 28.54441412 41.30555663 40.17784851 41.1953125 53.80859375 C41.19157667 55.14380175 41.18873239 56.47901251 41.18673706 57.81422424 C41.17914541 61.30768566 41.15953606 64.80097755 41.1373291 68.29437256 C41.11677371 71.86744901 41.10771473 75.44055318 41.09765625 79.01367188 C41.07628534 86.00918368 41.04220419 93.00458367 41 100 C38.14282511 99.96674188 35.29314616 99.89930452 32.4375 99.8125 C31.23770508 99.80379883 31.23770508 99.80379883 30.01367188 99.79492188 C25.2264445 99.61906454 21.06716092 99.05404589 17.27767944 95.9460144 C14.24752248 91.33082777 15.13066231 85.3236358 15.23828125 80.00390625 C15.23905485 78.60969277 15.23615845 77.21547292 15.2297821 75.8212738 C15.22019491 72.14854688 15.24877341 68.47723335 15.28894043 64.80474854 C15.35034274 58.96087111 15.37000668 53.1173978 15.35912132 47.27323723 C15.36315629 45.25394325 15.39419848 43.23475947 15.42610168 41.2157135 C15.46372966 24.67198893 10.30226661 12.67449905 0 0 Z " fill="#685E68" transform="translate(152,162)"/>
<path d="M0 0 C0.21914063 0.75023437 0.43828125 1.50046875 0.6640625 2.2734375 C4.88246064 15.88891767 10.80653934 24.8309615 23.0625 32.25 C29.70903638 35.75113325 36.63480661 36.86689332 44 38 C40.08604262 42.80857621 35.88452646 47.30934179 31.5625 51.75 C31.02536377 52.31678467 30.48822754 52.88356934 29.93481445 53.4675293 C24.67915871 58.79929652 19.2925231 61.4166432 11.6875 61.625 C4.33406402 61.43148853 0.39755374 58.74809199 -5 54 C-5.84433594 53.31292969 -6.68867188 52.62585938 -7.55859375 51.91796875 C-16.94281786 43.99065615 -24.85420871 33.67413197 -29 22 C-28.82202979 19.4241154 -28.3040543 18.36013347 -26.64453125 16.39453125 C-7.65925926 0 -7.65925926 0 0 0 Z " fill="#EAF5FD" transform="translate(352,226)"/>
<path d="M0 0 C10.93552044 3.29344621 20.97438762 10.97438762 29 19 C28.13403276 31.79105772 16.46563573 43.99003619 7.5625 52.375 C0.19333321 58.57121983 -6.25738203 61.52988064 -15.9453125 61.6640625 C-24.38342349 59.82969055 -30.18704644 53.22414465 -36 47.25 C-36.77472656 46.47011719 -37.54945313 45.69023437 -38.34765625 44.88671875 C-44 39.15462412 -44 39.15462412 -44 38 C-43.04480469 37.85304688 -42.08960938 37.70609375 -41.10546875 37.5546875 C-28.11623947 35.3013217 -16.49570829 30.66596813 -8.31640625 19.75390625 C-4.34761745 13.56813817 -2.05228171 7.02604678 0 0 Z " fill="#EAF5FD" transform="translate(441,226)"/>
<path d="M0 0 C0.89658325 0.19964355 0.89658325 0.19964355 1.8112793 0.40332031 C3.3590183 0.74666992 4.90774087 1.08559492 6.45703125 1.421875 C8.00414134 1.77359895 9.54588513 2.15214878 11.07421875 2.578125 C22.73190845 5.68684225 33.64903309 4.3091545 44.953125 0.875 C48 0 48 0 51 0 C51.7770672 25.90224011 51.7770672 25.90224011 44.375 35 C38.84266941 40.5524848 33.39760193 43.12108581 25.5625 43.5625 C17.7251963 43.22270082 11.55601411 39.95404771 6.0625 34.4375 C-1.6309183 24.65742344 -0.35245693 11.74856445 0 0 Z " fill="#F5A96C" transform="translate(90,357)"/>
<path d="M0 0 C5.91088744 0.53449514 10.62255758 2.2958652 16 4.75 C16.76828125 5.08515625 17.5365625 5.4203125 18.328125 5.765625 C23.35318381 8.02177385 27.61563114 10.66508114 32 14 C29.2514536 26.68339639 22.00693469 37.78001793 12 46 C8.21200683 48.27425845 4.33276666 48.90972681 0 48 C-6.05210014 44.71735504 -10.58117074 39.67896304 -15.375 34.8125 C-16.20644531 33.98041016 -17.03789063 33.14832031 -17.89453125 32.29101562 C-24 26.14043257 -24 26.14043257 -24 25 C-23.34773438 24.82984375 -22.69546875 24.6596875 -22.0234375 24.484375 C-14.81268943 22.48493453 -8.93683684 20.01288393 -4.1015625 13.9921875 C-1.73128435 9.70551424 -0.94848341 4.76555081 0 0 Z " fill="#B3D9FD" transform="translate(140,375)"/>
<path d="M0 0 C0.20302734 1.16015625 0.20302734 1.16015625 0.41015625 2.34375 C1.95589968 9.82255656 3.92537629 15.151983 10 20 C14.38050063 22.57279404 18.93791069 24.34682719 24 25 C19.82397443 29.9666014 15.50551823 34.70488898 10.9375 39.3125 C10.33873047 39.93189453 9.73996094 40.55128906 9.12304688 41.18945312 C4.85581856 45.49407227 1.73112358 47.70205925 -4.4375 48.375 C-11.92526331 47.58681439 -17.32466558 41.54180566 -22 36 C-26.77289821 29.09736235 -30.10057732 22.17656238 -32 14 C-23.62099806 7.64592353 -10.71282255 0 0 0 Z " fill="#B3D9FD" transform="translate(91,375)"/>
<path d="M0 0 C19.11556604 0 19.11556604 0 25.14453125 4.65625 C29.95909596 9.97820443 31.75810814 14.81686341 32 22 C31.62351708 28.42302686 28.54721764 33.55120699 24 38 C16.5832827 43.52374761 9.41516629 42 0 42 C0 28.14 0 14.28 0 0 Z " fill="#F5A96B" transform="translate(175,261)"/>
<path d="M0 0 C0 13.86 0 27.72 0 42 C-19.64467005 42 -19.64467005 42 -26.6484375 35.4609375 C-30.81597987 30.37798119 -32.1498941 24.11527424 -31.9140625 17.640625 C-30.9573556 11.47518052 -27.83533691 6.89293062 -23 3 C-16 0 -16 0 0 0 Z " fill="#F5A96B" transform="translate(56,261)"/>
<path d="M0 0 C7.875 6.75 7.875 6.75 10.52734375 9.4296875 C11.09130859 9.996875 11.65527344 10.5640625 12.23632812 11.1484375 C12.79771484 11.71820313 13.35910156 12.28796875 13.9375 12.875 C14.82018555 13.76445312 14.82018555 13.76445312 15.72070312 14.671875 C17.14947674 16.11226466 18.57508132 17.5557967 20 19 C17.48415501 27.43548027 13.78797323 35.06669757 10 43 C3.73 43 -2.54 43 -9 43 C-10.093125 40.710625 -11.18625 38.42125 -12.3125 36.0625 C-12.65063721 35.36133057 -12.98877441 34.66016113 -13.3371582 33.93774414 C-15.67538337 28.98152363 -17.23598869 24.29203393 -19 19 C-12.73 12.73 -6.46 6.46 0 0 Z " fill="#FD6470" transform="translate(115,400)"/>
<path d="M0 0 C0.33 0 0.66 0 1 0 C1.52713353 8.21553916 2.04903923 16.4313879 2.56460571 24.64766026 C2.80426219 28.46440709 3.04559583 32.28103118 3.29101562 36.09741211 C3.52860293 39.79302375 3.76145422 43.48890827 3.99127197 47.18501091 C4.07893546 48.58221658 4.16819333 49.97932333 4.25921631 51.37631416 C4.72967464 58.61341498 5.10723753 65.85373908 5.2421875 73.10522461 C5.26909668 74.28628281 5.29600586 75.467341 5.32373047 76.68418884 C4.84274481 81.61068718 3.20352515 84.85981828 -0.375 88.25 C-5.00423832 91.33615888 -8.62133222 92.25003614 -14.17578125 92.1953125 C-15.91118164 92.18564453 -15.91118164 92.18564453 -17.68164062 92.17578125 C-19.47891602 92.15064453 -19.47891602 92.15064453 -21.3125 92.125 C-23.1387793 92.11146484 -23.1387793 92.11146484 -25.00195312 92.09765625 C-28.00150274 92.07413037 -31.00065044 92.04125653 -34 92 C-34.1394043 89.12353516 -34.1394043 89.12353516 -34 86 C-31.76953125 84.0234375 -31.76953125 84.0234375 -28.8125 82.375 C-15.85203182 74.98388963 -7.29725705 63.44020679 -3.16040039 49.08691406 C-0.73499911 38.75389957 -0.45135009 28.69558751 -0.3125 18.125 C-0.27923784 16.35804908 -0.24474039 14.59112096 -0.20898438 12.82421875 C-0.12511779 8.54960769 -0.05783989 4.27503917 0 0 Z " fill="#7B6D78" transform="translate(456,113)"/>
</svg>
